<svg width="100%" height="100%" xmlns:dc="http://purl.org/dc/elements/1.1/" xmlns:cc="http://creativecommons.org/ns#" xmlns:rdf="http://www.w3.org/1999/02/22-rdf-syntax-ns#" xmlns:svg="http://www.w3.org/2000/svg" xmlns="http://www.w3.org/2000/svg" xmlns:sodipodi="http://sodipodi.sourceforge.net/DTD/sodipodi-0.dtd" xmlns:inkscape="http://www.inkscape.org/namespaces/inkscape" viewBox="-5 15 70 100" version="1.1" id="svg8" inkscape:version="0.92.3 (2405546, 2018-03-11)" sodipodi:docname="dog.svg">

  <g inkscape:label="Layer 1" inkscape:groupmode="layer" id="layer1">
<path style="opacity:1;fill:#000000;fill-opacity:1;fill-rule:nonzero;stroke:none;stroke-width:1;stroke-linecap:square;stroke-linejoin:miter;stroke-miterlimit:4;stroke-dasharray:none;stroke-dashoffset:0;stroke-opacity:1;paint-order:fill markers stroke" d="m 68.190209,97.510083 c -1.60362,-1.73725 -5.21176,-11.89349 -4.40995,-15.7689 0.80181,-3.87541 3.18245,-7.25677 3.47451,-12.18508 0.29205,-4.92832 -2.84074,-10.09181 -0.83622,-11.02725 2.00453,-0.93545 9.35444,-6.98242 10.02261,-6.71515 0.66818,0.26727 5.67949,3.34088 6.74856,2.53907 1.06908,-0.80182 -13.83119,-13.22985 -17.97387,-13.63075 -4.14268,-0.40091 -10.89124,4.14267 -10.89124,4.14267 -1.60361,-1.06908 -7.43188,-2.37717 -14.60533,-0.69782 -0.13363,-1.20271 -2.76718,-7.98843 -3.70263,-11.06203 -0.93544,-3.073602 -11.22532,-14.967096 -13.36347,-14.298923 -2.13816,0.668174 -4.40995,22.317003 -4.27632,27.929663 0.13364,5.61267 6.54811,9.75535 7.61718,11.22533 1.06908,1.46998 1.73726,3.0736 0.53454,6.68174 -1.20271,3.60813 0.93545,12.96257 1.33635,17.10525 0.40091,4.14267 -1.60361,9.35443 -3.34087,15.90253 z" id="path858-1" inkscape:connector-curvature="0" sodipodi:nodetypes="cszcccscccssccccc"/>
  </g>
</svg>