<?xml version="1.0" encoding="UTF-8" standalone="no"?>
<!-- Created with Inkscape (http://www.inkscape.org/) -->

<svg
   xmlns:osb="http://www.openswatchbook.org/uri/2009/osb"
   xmlns:dc="http://purl.org/dc/elements/1.1/"
   xmlns:cc="http://creativecommons.org/ns#"
   xmlns:rdf="http://www.w3.org/1999/02/22-rdf-syntax-ns#"
   xmlns:svg="http://www.w3.org/2000/svg"
   xmlns="http://www.w3.org/2000/svg"
   xmlns:xlink="http://www.w3.org/1999/xlink"
   xmlns:sodipodi="http://sodipodi.sourceforge.net/DTD/sodipodi-0.dtd"
   xmlns:inkscape="http://www.inkscape.org/namespaces/inkscape"
   viewBox="0 -15 200 210"
   version="1.1"
   id="svg8"
   inkscape:version="0.92.3 (2405546, 2018-03-11)"
   sodipodi:docname="knight.svg">
   <animate begin="0s" dur="1.5s" xlink:href="#path11626" attributeName="d" repeatCount="indefinite" 
   values="
      m 51.777177,27.066689 c 0,0 17.46312,-7.67058 45.59821,6.38727 17.02832,8.50829 17.37216,19.99911 36.64547,18.33061 36.18954,-3.13295 42.86863,28.841321 73.71506,27.73499 -26.77065,16.095376 -32.44,-5.20193 -74.98347,7.992311 -17.71912,5.495328 -27.2401,-3.958676 -47.36357,-7.065669 -15.87212,-2.450592 -28.62731,2.252932 -35.28465,3.913094 -7.87107,1.962836 1.67295,-57.292606 1.67295,-57.292606 z;
      m 51.777177,27.066689 c 0,0 29.67444,14.59546 58.68136,10.34264 17.47186,-2.56162 31.76586,12.36279 39.3838,18.63487 19.5549,16.10013 37.80434,-1.45071 57.67844,19.81791 -21.82235,-8.43102 -32.21961,15.67336 -57.12129,7.998649 -17.7288,-5.464029 -31.11127,-9.817139 -47.97209,-3.414557 -21.2746,8.078638 -45.45069,7.631528 -52.32317,3.913094 -7.13473,-3.860325 1.67295,-57.292606 1.67295,-57.292606 z;
      m 51.777177,27.066689 c 32.40275,-9.0990059 56.1147,13.3081621 69.6537,23.4664141 5.80925,4.358652 27.11854,-4.115353 45.8381,10.459405 18.14412,14.126733 25.90618,18.735904 40.46694,18.527055 -10.98276,6.961645 -19.08076,7.961385 -36.02414,4.43031 -17.71357,-3.691585 -39.13322,5.254806 -49.81386,5.209654 -16.0237,-0.06774 -39.01847,-17.432067 -71.79369,-4.80023 -7.5694,2.917309 1.67295,-57.2926081 1.67295,-57.2926081 z;" />
  <defs
     id="defs2">
    <linearGradient
       id="linearGradient11648"
       inkscape:collect="always">
      <stop
         id="stop11644"
         offset="0"
         style="stop-color:#b7b7ba;stop-opacity:1" />
      <stop
         id="stop11646"
         offset="1"
         style="stop-color:#808580;stop-opacity:1" />
    </linearGradient>
    <linearGradient
       inkscape:collect="always"
       id="linearGradient11632">
      <stop
         style="stop-color:#787d78;stop-opacity:1"
         offset="0"
         id="stop11628" />
      <stop
         style="stop-color:#bababd;stop-opacity:1"
         offset="1"
         id="stop11630" />
    </linearGradient>
    <linearGradient
       inkscape:collect="always"
       id="linearGradient2401">
      <stop
         id="stop2397"
         offset="0"
         style="stop-color:#bf9408;stop-opacity:1" />
      <stop
         style="stop-color:#7d5903;stop-opacity:1"
         offset="1"
         id="stop2399" />
    </linearGradient>
    <linearGradient
       id="linearGradient2385"
       inkscape:collect="always">
      <stop
         style="stop-color:#cba608;stop-opacity:1;"
         offset="0"
         id="stop2381" />
      <stop
         id="stop2383"
         offset="1"
         style="stop-color:#977103;stop-opacity:1" />
    </linearGradient>
    <pattern
       inkscape:collect="always"
       xlink:href="#pattern10313"
       id="pattern2369"
       patternTransform="matrix(-0.14493675,0.22135418,-0.22135418,-0.14493675,79.791492,128.58218)" />
    <pattern
       inkscape:collect="always"
       xlink:href="#pattern10313"
       id="pattern1024"
       patternTransform="matrix(0.26458333,0,0,0.26458333,91.192556,114.53212)" />
    <pattern
       inkscape:collect="always"
       xlink:href="#pattern10313"
       id="pattern11197"
       patternTransform="matrix(0.24895382,0.08958973,-0.08958973,0.24895382,91.192556,114.53212)" />
    <linearGradient
       id="linearGradient10420"
       inkscape:collect="always">
      <stop
         id="stop10416"
         offset="0"
         style="stop-color:#0e0e00;stop-opacity:1" />
      <stop
         id="stop10418"
         offset="1"
         style="stop-color:#323326;stop-opacity:1" />
    </linearGradient>
    <linearGradient
       id="linearGradient10406"
       inkscape:collect="always">
      <stop
         id="stop10402"
         offset="0"
         style="stop-color:#101212;stop-opacity:1" />
      <stop
         id="stop10404"
         offset="1"
         style="stop-color:#333535;stop-opacity:1" />
    </linearGradient>
    <pattern
       inkscape:collect="always"
       xlink:href="#pattern10313"
       id="pattern10384"
       patternTransform="matrix(0.12588244,-0.2327186,0.2327186,0.12588244,91.192556,114.53212)" />
    <pattern
       inkscape:collect="always"
       xlink:href="#pattern10313"
       id="pattern10382"
       patternTransform="matrix(0.1026905,0.2438422,-0.2438422,0.1026905,91.192556,114.53212)" />
    <linearGradient
       inkscape:collect="always"
       id="linearGradient10338">
      <stop
         style="stop-color:#675200;stop-opacity:1"
         offset="0"
         id="stop10334" />
      <stop
         style="stop-color:#88640a;stop-opacity:1"
         offset="1"
         id="stop10336" />
    </linearGradient>
    <linearGradient
       inkscape:collect="always"
       id="linearGradient10330">
      <stop
         style="stop-color:#dbb90c;stop-opacity:1"
         offset="0"
         id="stop10326" />
      <stop
         id="stop2179"
         offset="0.41087353"
         style="stop-color:#cba608;stop-opacity:1;" />
      <stop
         style="stop-color:#b58c03;stop-opacity:1"
         offset="1"
         id="stop10328" />
    </linearGradient>
    <pattern
       inkscape:collect="always"
       xlink:href="#pattern10313"
       id="pattern10318"
       patternTransform="matrix(0.26458333,0,0,0.26458333,-3.8093335,145.5739)" />
    <linearGradient
       inkscape:collect="always"
       id="linearGradient5060">
      <stop
         style="stop-color:#ffffff;stop-opacity:0.50534761"
         offset="0"
         id="stop5056" />
      <stop
         style="stop-color:#ffffff;stop-opacity:0"
         offset="1"
         id="stop5058" />
    </linearGradient>
    <linearGradient
       id="linearGradient2966"
       osb:paint="solid">
      <stop
         style="stop-color:#a70000;stop-opacity:1;"
         offset="0"
         id="stop2964" />
    </linearGradient>
    <linearGradient
       inkscape:collect="always"
       xlink:href="#linearGradient10420"
       id="linearGradient10203"
       gradientUnits="userSpaceOnUse"
       gradientTransform="translate(-81.642504,-53.425981)"
       x1="255.32292"
       y1="201.75"
       x2="252.78329"
       y2="263.80328" />
    <linearGradient
       inkscape:collect="always"
       xlink:href="#linearGradient10420"
       id="linearGradient10205"
       gradientUnits="userSpaceOnUse"
       gradientTransform="translate(-81.642504,-53.425981)"
       x1="216.58037"
       y1="169.05505"
       x2="210.41205"
       y2="224.42857" />
    <pattern
       patternUnits="userSpaceOnUse"
       width="8.2442457"
       height="16.216596"
       patternTransform="matrix(0.26458333,0,0,0.26458333,278.16857,63.470677)"
       id="pattern10313">
      <path
         id="path10311"
         d="M 0.45108661,3.7795275e-6 C 1.3334929,2.1085266 3.4153701,3.5976605 5.8377827,3.5976605 6.558085,3.8830148 6.6384,5.1857802 6.7323969,5.8417928 c 0,0.860107 -0.2554961,1.6540724 -0.6836032,2.3261858 C 5.9807622,8.1490809 5.918022,8.1267817 5.8378961,8.1267817 2.6187969,8.1267817 0,10.753213 0,13.972464 0,14.767071 0.16062992,15.52464 0.44931024,16.216596 H 2.3984882 C 1.7171906,15.722271 1.6323024,14.785213 1.505915,13.972464 c 0,-0.86007 0.255874,-1.654111 0.6836031,-2.326148 0.066898,0.0189 0.1292599,0.0412 0.2090079,0.0412 3.2192126,0 5.8457197,-2.6264689 5.8457197,-5.8457192 C 8.2442457,2.6627906 5.6816504,0.06459213 2.5176189,0 Z"
         style="color:#000000;font-style:normal;font-variant:normal;font-weight:normal;font-stretch:normal;font-size:medium;line-height:normal;font-family:sans-serif;font-variant-ligatures:normal;font-variant-position:normal;font-variant-caps:normal;font-variant-numeric:normal;font-variant-alternates:normal;font-feature-settings:normal;text-indent:0;text-align:start;text-decoration:none;text-decoration-line:none;text-decoration-style:solid;text-decoration-color:#000000;letter-spacing:normal;word-spacing:normal;text-transform:none;writing-mode:lr-tb;direction:ltr;text-orientation:mixed;dominant-baseline:auto;baseline-shift:baseline;text-anchor:start;white-space:normal;shape-padding:0;clip-rule:nonzero;display:inline;overflow:visible;visibility:visible;opacity:1;isolation:auto;mix-blend-mode:normal;color-interpolation:sRGB;color-interpolation-filters:linearRGB;solid-color:#000000;solid-opacity:1;vector-effect:none;fill:#bea00b;fill-opacity:1;fill-rule:nonzero;stroke:none;stroke-width:1.51181102;stroke-linecap:round;stroke-linejoin:miter;stroke-miterlimit:4;stroke-dasharray:none;stroke-dashoffset:0;stroke-opacity:1;paint-order:fill markers stroke;color-rendering:auto;image-rendering:auto;shape-rendering:auto;text-rendering:auto;enable-background:accumulate"
         inkscape:connector-curvature="0" />
    </pattern>
    <linearGradient
       inkscape:collect="always"
       xlink:href="#linearGradient10338"
       id="linearGradient10340"
       x1="315.95541"
       y1="35.008968"
       x2="315.73874"
       y2="60.167633"
       gradientUnits="userSpaceOnUse"
       gradientTransform="translate(-186.97601,51.061439)" />
    <radialGradient
       inkscape:collect="always"
       xlink:href="#linearGradient10330"
       id="radialGradient10342"
       cx="327.71628"
       cy="20.800228"
       fx="327.71628"
       fy="20.800228"
       r="23.171133"
       gradientTransform="matrix(0.98157484,0.08957465,-0.11301699,1.2384601,-177.64519,14.667281)"
       gradientUnits="userSpaceOnUse" />
    <radialGradient
       inkscape:collect="always"
       xlink:href="#linearGradient5060"
       id="radialGradient10388"
       cx="328.77322"
       cy="15.947001"
       fx="328.77322"
       fy="15.947001"
       r="14.804337"
       gradientTransform="matrix(2.0598772,1.2400987,-0.71134432,1.1815849,-522.87994,-358.05323)"
       gradientUnits="userSpaceOnUse" />
    <linearGradient
       inkscape:collect="always"
       xlink:href="#linearGradient10406"
       id="linearGradient10400"
       gradientUnits="userSpaceOnUse"
       x1="316.12543"
       y1="92.841995"
       x2="316.12543"
       y2="151.8683"
       gradientTransform="translate(-186.97601,51.061439)" />
    <linearGradient
       inkscape:collect="always"
       xlink:href="#linearGradient10420"
       id="linearGradient10414"
       x1="364.03711"
       y1="74.854065"
       x2="361.06793"
       y2="133.11972"
       gradientUnits="userSpaceOnUse"
       gradientTransform="translate(-186.97601,51.061439)" />
    <linearGradient
       inkscape:collect="always"
       xlink:href="#linearGradient10420"
       id="linearGradient10543"
       gradientUnits="userSpaceOnUse"
       x1="5.532547"
       y1="140.97112"
       x2="18.91769"
       y2="99.198692"
       gradientTransform="matrix(1.0690628,0,0,1.0690628,56.392096,38.41587)" />
    <linearGradient
       inkscape:collect="always"
       xlink:href="#linearGradient2385"
       id="linearGradient2377"
       x1="57.756733"
       y1="116.968"
       x2="49.123508"
       y2="135.63997"
       gradientUnits="userSpaceOnUse"
       gradientTransform="translate(-11.866114,20.081115)" />
    <linearGradient
       inkscape:collect="always"
       xlink:href="#linearGradient2401"
       id="linearGradient2395"
       gradientUnits="userSpaceOnUse"
       x1="64.027412"
       y1="113.69364"
       x2="57.0247"
       y2="139.83038"
       gradientTransform="translate(-11.866114,20.081115)" />
    <linearGradient
       inkscape:collect="always"
       xlink:href="#linearGradient11632"
       id="linearGradient11634"
       x1="47.418358"
       y1="94.410553"
       x2="56.688667"
       y2="94.492767"
       gradientUnits="userSpaceOnUse" />
    <radialGradient
       inkscape:collect="always"
       xlink:href="#linearGradient11648"
       id="radialGradient11642"
       cx="52.717228"
       cy="20.895826"
       fx="52.717228"
       fy="20.895826"
       r="4.8681488"
       gradientUnits="userSpaceOnUse"
       gradientTransform="matrix(1.3571674,0.21670862,-0.2233904,1.3990125,-14.390279,-19.983803)" />
    <linearGradient
       inkscape:collect="always"
       xlink:href="#linearGradient2385"
       id="linearGradient11670"
       x1="33.919781"
       y1="119.23895"
       x2="54.125168"
       y2="119.92353"
       gradientUnits="userSpaceOnUse"
       gradientTransform="translate(-11.866114,20.081115)" />
  </defs>
  <sodipodi:namedview
     id="base"
     pagecolor="#ffffff"
     bordercolor="#666666"
     borderopacity="1.0"
     inkscape:pageopacity="0.0"
     inkscape:pageshadow="2"
     inkscape:zoom="0.61489873"
     inkscape:cx="451.76042"
     inkscape:cy="895.85097"
     inkscape:document-units="mm"
     inkscape:current-layer="layer2"
     showgrid="false"
     inkscape:window-width="1920"
     inkscape:window-height="1001"
     inkscape:window-x="-9"
     inkscape:window-y="-9"
     inkscape:window-maximized="1"
     inkscape:lockguides="false"
     showguides="true" />
  <metadata
     id="metadata5">
    <rdf:RDF>
      <cc:Work
         rdf:about="">
        <dc:format>image/svg+xml</dc:format>
        <dc:type
           rdf:resource="http://purl.org/dc/dcmitype/StillImage" />
        <dc:title />
      </cc:Work>
    </rdf:RDF>
  </metadata>
  <g
     inkscape:label="Layer 1"
     inkscape:groupmode="layer"
     id="layer1">
    <g
       aria-label="About"
       style="font-style:normal;font-variant:normal;font-weight:normal;font-stretch:normal;font-size:22.57777786px;line-height:9.25;font-family:Consolas;-inkscape-font-specification:Consolas;letter-spacing:0px;word-spacing:0px;fill:#000000;fill-opacity:1;stroke:none;stroke-width:0.26458332"
       id="text1184"
       transform="translate(-6.9490077,0.26726953)" />
    <g
       aria-label="About"
       style="font-style:normal;font-variant:normal;font-weight:normal;font-stretch:normal;font-size:22.57777786px;line-height:9.25;font-family:Consolas;-inkscape-font-specification:Consolas;letter-spacing:0px;word-spacing:0px;fill:#000000;fill-opacity:1;stroke:none;stroke-width:0.26458332"
       id="text4841" />
  </g>
  <g
     inkscape:groupmode="layer"
     id="layer2"
     inkscape:label="Layer 2">
    <path
       style="opacity:1;fill:url(#linearGradient2395);fill-opacity:1;fill-rule:nonzero;stroke:none;stroke-width:3.14729333;stroke-linecap:square;stroke-linejoin:miter;stroke-miterlimit:4;stroke-dasharray:none;stroke-dashoffset:0;stroke-opacity:1;paint-order:fill markers stroke"
       d="m 35.734603,154.05267 c 0,0 0.951668,0.70266 2.511149,2.54296 0.59652,0.70394 11.017724,10.6091 11.017724,10.6091 l 10.285206,-16.33813 -13.31385,-9.82861 z"
       id="path2081"
       inkscape:connector-curvature="0"
       sodipodi:nodetypes="cscccc" />
    <path
       style="opacity:1;fill:#292b2b;fill-opacity:1;fill-rule:nonzero;stroke:none;stroke-width:0.3784793;stroke-linecap:square;stroke-linejoin:miter;stroke-miterlimit:4;stroke-dasharray:none;stroke-dashoffset:0;stroke-opacity:1;paint-order:fill markers stroke"
       d="m 34.835785,153.158 c -3.627329,-1.77253 -5.281948,-1.64624 -7.595764,-2.12834 -2.313807,-0.48209 -3.178938,-5.18191 -3.178938,-5.18191 l 7.41787,-14.7929 5.036466,-0.46144 5.181536,1.4048 2.618516,7.34263 -6.271669,16.55706 z"
       id="path10919-0-0-0"
       inkscape:connector-curvature="0"
       sodipodi:nodetypes="ccccccccc" />
    <path
       style="opacity:1;fill:url(#linearGradient2377);fill-opacity:1;fill-rule:nonzero;stroke:none;stroke-width:0.39159298;stroke-linecap:square;stroke-linejoin:miter;stroke-miterlimit:4;stroke-dasharray:none;stroke-dashoffset:0;stroke-opacity:1;paint-order:fill markers stroke"
       d="m 46.486261,141.29404 c 0.1466,-1.50443 -1.501417,-1.71374 -1.626829,-3.54439 -0.384925,-2.98089 -2.687072,-6.01767 -2.687072,-6.01767 0.163348,0.77554 -2.095345,1.26363 -1.887512,1.99331 0.597519,2.09781 1.081581,4.28852 1.115633,6.69889 0.07817,5.53315 -0.927659,9.76256 -3.496309,12.62652 -0.40587,0.45253 -1.965544,0.84399 -3.068387,0.1073 0.04781,1.62333 2.697608,3.46365 3.330986,3.36263 1.74567,-0.27844 3.752262,-2.2624 5.471636,-5.69064 2.126291,-4.23958 2.847854,-9.53595 2.847854,-9.53595 z"
       id="path10909-5-4-9"
       inkscape:connector-curvature="0"
       sodipodi:nodetypes="cccssscssc" />
    <g
       id="g11653"
       transform="rotate(1.1017247,730.20494,-427.89224)">
      <path
         sodipodi:nodetypes="cszscssssc"
         inkscape:connector-curvature="0"
         id="path11626"
         d="m 51.777177,27.066689 c 0,0 27.716737,-5.009711 45.71259,5.509349 16.434013,9.606122 18.102413,21.801178 36.991143,17.622614 18.88873,-4.178563 34.11595,6.82428 45.31232,18.378189 9.09039,9.380674 28.92239,7.934321 28.92239,7.934321 0,0 -21.08008,12.423571 -39.0593,7.128224 -18.64966,-5.492806 -27.10796,4.877802 -41.7705,6.071788 -18.4905,1.505703 -21.29731,-7.201622 -41.476803,-9.921112 -15.916308,-2.14496 -21.532303,5.254117 -35.202885,4.590804 -8.102592,-0.393148 0.571045,-57.314177 0.571045,-57.314177 z"
         style="opacity:1;fill:#141f9c;fill-opacity:1;fill-rule:nonzero;stroke:none;stroke-width:6.09884977;stroke-linecap:square;stroke-linejoin:miter;stroke-miterlimit:4;stroke-dasharray:none;stroke-dashoffset:0;stroke-opacity:1;paint-order:fill markers stroke" />
      <rect
         transform="rotate(3.2080764)"
         y="20.76144"
         x="48.681816"
         height="205.67931"
         width="6.3894458"
         id="rect11620"
         style="opacity:1;fill:url(#linearGradient11634);fill-opacity:1;fill-rule:nonzero;stroke:none;stroke-width:3;stroke-linecap:square;stroke-linejoin:miter;stroke-miterlimit:4;stroke-dasharray:none;stroke-dashoffset:0;stroke-opacity:1;paint-order:fill markers stroke" />
      <circle
         r="4.8681488"
         cy="23.470871"
         cx="50.659176"
         id="path11622"
         style="opacity:1;fill:url(#radialGradient11642);fill-opacity:1;fill-rule:nonzero;stroke:none;stroke-width:3;stroke-linecap:square;stroke-linejoin:miter;stroke-miterlimit:4;stroke-dasharray:none;stroke-dashoffset:0;stroke-opacity:1;paint-order:fill markers stroke" />
    </g>
    <path
       style="opacity:1;fill:url(#linearGradient10543);fill-opacity:1;fill-rule:nonzero;stroke:none;stroke-width:1.21359384;stroke-linecap:square;stroke-linejoin:miter;stroke-miterlimit:4;stroke-dasharray:none;stroke-dashoffset:0;stroke-opacity:1;paint-order:fill markers stroke"
       d="m 61.231016,186.32597 c -5.96377,-6.20485 -17.55605,-9.80235 -19.44302,-12.96474 -0.84415,-1.43684 -3.725572,-8.75974 -1.373443,-14.62247 l 5.389468,4.72262 c 3.085117,-7.26942 4.76669,-18.39849 3.452835,-20.11272 l -1.13922,-0.93319 c 0.105583,-0.20443 0.593699,-0.8831 0.957073,-0.65083 7.229262,4.62084 24.164486,16.08701 29.567757,20.21963 0.74453,-6.1808 4.47034,-1.95098 6.2263,-8.63728 2.37974,-9.06153 6.50182,-18.6118 12.03483,-23.99245 l 7.146654,47.04748 c 0,0 -12.386894,14.66081 -18.885294,16.41481 -6.6022,0.55375 -10.44766,-2.50729 -14.0119,-3.68371 -1.76603,-0.5829 -7.95835,-0.65087 -9.92204,-2.80715 z"
       id="path9906-1"
       inkscape:connector-curvature="0"
       sodipodi:nodetypes="ccccccscscccsc" />
    <path
       style="opacity:1;fill:url(#pattern11197);fill-opacity:1;fill-rule:nonzero;stroke:none;stroke-width:1.21359384;stroke-linecap:square;stroke-linejoin:miter;stroke-miterlimit:4;stroke-dasharray:none;stroke-dashoffset:0;stroke-opacity:1;paint-order:fill markers stroke"
       d="m 78.642466,161.98427 c 0,0 0,0 0,0 0.74454,-6.1808 4.47032,-1.95098 6.22631,-8.63728 2.37971,-9.06154 6.50182,-18.6118 12.03481,-23.99245 l 7.146664,47.04748 c 0,0 -12.386894,14.66081 -18.885304,16.41481 -0.13076,0.011 -0.26045,0.0205 -0.38909,0.0287"
       id="path9906-1-5"
       inkscape:connector-curvature="0" />
    <path
       style="opacity:1;fill:#222424;fill-opacity:1;fill-rule:nonzero;stroke:none;stroke-width:1.21359384;stroke-linecap:square;stroke-linejoin:miter;stroke-miterlimit:4;stroke-dasharray:none;stroke-dashoffset:0;stroke-opacity:1;paint-order:fill markers stroke"
       d="m 96.903586,129.35454 c -3.83146,3.72596 -6.98516,9.45209 -9.35344,15.63005 l 14.092684,15.57114 z"
       id="path9906-1-5-7"
       inkscape:connector-curvature="0" />
    <path
       style="opacity:1;fill:url(#linearGradient10400);fill-opacity:1;fill-rule:nonzero;stroke:none;stroke-width:0.02645833;stroke-linecap:round;stroke-linejoin:miter;stroke-miterlimit:4;stroke-dasharray:none;stroke-dashoffset:0;stroke-opacity:1;paint-order:fill markers stroke"
       d="m 96.150596,132.15142 c -8.46039,13.43802 -3.36695,60.4362 1.44391,66.04886 2.13815,4.00904 84.640614,-1.62261 84.640614,-1.62261 0,0 1.99469,-10.08138 2.33736,-17.10989 0.79659,-16.3393 8.3475,-42.65722 -2.95449,-54.8287 -12.18618,-13.1237 -77.75584,-4.73626 -85.467394,7.51234 z"
       id="path4802-9-4"
       inkscape:connector-curvature="0"
       sodipodi:nodetypes="sccsss" />
    <path
       style="opacity:1;fill:#000000;fill-opacity:0.4919786;fill-rule:nonzero;stroke:none;stroke-width:0.02645833;stroke-linecap:round;stroke-linejoin:miter;stroke-miterlimit:4;stroke-dasharray:none;stroke-dashoffset:0;stroke-opacity:1;paint-order:fill markers stroke"
       d="m 169.57783,127.3759 c -3.82227,3.46488 -8.45629,13.68854 -12.96345,28.54147 -4.91025,16.18125 -5.97716,38.81161 -12.98616,43.0823 9.61452,-0.4797 19.11964,-1.07296 26.29555,-1.55339 0.52349,-0.16441 1.03357,-0.32287 1.5596,-0.48835 2.62403,-17.73838 1.1977,-71.74169 -1.90554,-69.58203 z"
       id="path4804-1-0-3"
       inkscape:connector-curvature="0"
       sodipodi:nodetypes="cscccc" />
    <path
       style="opacity:1;fill:url(#linearGradient10414);fill-opacity:1;fill-rule:nonzero;stroke:none;stroke-width:0.02645833;stroke-linecap:round;stroke-linejoin:miter;stroke-miterlimit:4;stroke-dasharray:none;stroke-dashoffset:0;stroke-opacity:1;paint-order:fill markers stroke"
       d="m 164.85679,133.24953 c -8.50737,7.71192 -2.71895,45.06349 -9.83517,62.6302 -0.0233,0.1408 -0.0246,0.27493 -0.009,0.40411 15.18887,-0.8809 27.83138,-1.83606 27.83138,-1.83606 0.79534,-5.7413 1.46709,-9.69054 1.72847,-14.97997 0.74102,-13.46978 3.93894,-25.52723 3.05933,-38.18992 -0.62995,-6.00375 -1.68127,-11.52309 -5.45725,-16.00584 -0.16632,-0.19712 -0.33726,-0.39101 -0.51263,-0.58136 -1.6e-4,-1.8e-4 -2.6e-4,-2.6e-4 -5.3e-4,-5.3e-4 -7.35103,-0.79242 -12.67671,4.77709 -16.80428,8.55937 z"
       id="path4804-9-5"
       inkscape:connector-curvature="0"
       sodipodi:nodetypes="cccccccccc" />
    <path
       style="opacity:1;fill:url(#linearGradient10203);fill-opacity:1;fill-rule:nonzero;stroke:none;stroke-width:0.02645833;stroke-linecap:round;stroke-linejoin:miter;stroke-miterlimit:4;stroke-dasharray:none;stroke-dashoffset:0;stroke-opacity:1;paint-order:fill markers stroke"
       d="m 187.72602,147.74682 c -0.0709,-0.006 -0.14028,-0.0198 -0.21135,-0.0248 -0.53924,-0.0378 -1.08288,-0.0513 -1.62935,-0.0429 -0.54647,0.008 -1.09599,0.039 -1.64746,0.0899 -9.23979,1.13146 -17.64302,6.23585 -24.75764,11.87731 -0.53912,12.82666 -0.78926,27.55736 -4.4676,36.63751 0,0 20.34989,-1.27619 27.83134,-1.83602 0.79534,-5.74129 1.46719,-9.69054 1.72858,-14.97996 0.61393,-11.15972 2.88305,-21.35285 3.1538,-31.72107 z"
       id="path4997-4-1"
       inkscape:connector-curvature="0"
       sodipodi:nodetypes="cccccccccc" />
    <path
       style="opacity:1;fill:url(#linearGradient10205);fill-opacity:1;stroke:none;stroke-width:2;stroke-linecap:round;stroke-linejoin:miter;stroke-miterlimit:4;stroke-dasharray:none;stroke-dashoffset:0;stroke-opacity:1;paint-order:fill markers stroke"
       d="m 157.58963,95.400993 -14.50144,-4.78937 -31.2989,1.20406 c -0.13496,1.06711 -0.30797,2.42311 -0.30797,2.42311 0.31641,2.26692 0.97483,4.51992 1.88981,6.236827 -2.26785,1.5119 -1.88981,19.46555 -1.88981,21.54443 0,2.07887 -9.26042,2.45729 -10.58334,3.21324 -1.322914,0.75595 -9.060154,5.92259 -7.548244,19.15175 1.51188,13.22916 7.248284,14.70168 17.504954,18.40308 4.45614,1.60813 27.1954,-1.7818 43.36194,-10.78099 7.34838,-4.0905 15.22046,-17.56325 19.34227,-21.99289 4.80602,-5.165 9.28775,-3.98632 8.22563,-6.10387 -4.01738,-8.00945 -14.17368,-7.18199 -19.27635,-8.50491 -5.10267,-1.32292 -5.79355,-4.63361 -4.98494,-6.14189 1.02042,-1.90334 0.33023,-5.95236 -0.59502,-7.95273 -0.6994,-1.512077 -0.25725,-2.776637 0.66141,-5.909847 z"
       id="path1716-77-3"
       inkscape:connector-curvature="0"
       sodipodi:nodetypes="cccccsccsssssssc" />
    <path
       sodipodi:nodetypes="ccccccc"
       inkscape:connector-curvature="0"
       style="opacity:1;fill:url(#pattern10384);fill-opacity:1;stroke:none;stroke-width:2;stroke-linecap:round;stroke-linejoin:miter;stroke-miterlimit:4;stroke-dasharray:none;stroke-dashoffset:0;stroke-opacity:1;paint-order:fill markers stroke"
       d="m 158.29765,113.08367 c -4.87738,5.38166 -17.71102,15.79125 -11.58192,42.56569 2.60506,-1.09752 5.15151,-2.31217 7.55562,-3.65042 7.34838,-4.09051 15.16558,-17.55488 19.28739,-21.98452 4.80602,-5.165 9.28798,-3.98647 8.22587,-6.10402 -4.01738,-8.00944 -14.17368,-7.18199 -19.27635,-8.50491 -2.05759,-0.53345 -3.39678,-1.39046 -4.21061,-2.32182 z"
       id="path1716-5-2-4-6" />
    <path
       sodipodi:nodetypes="csccc"
       inkscape:connector-curvature="0"
       style="opacity:1;fill:url(#pattern10382);fill-opacity:1;stroke:none;stroke-width:2;stroke-linecap:round;stroke-linejoin:miter;stroke-miterlimit:4;stroke-dasharray:none;stroke-dashoffset:0;stroke-opacity:1;paint-order:fill markers stroke"
       d="m 111.17289,122.63658 c -1.60713,1.54763 -9.09499,1.92255 -10.27482,2.59674 -1.322924,0.75595 -9.052744,6.12709 -7.540834,19.35625 0.87565,7.66202 3.25864,11.35379 7.099314,13.82551 7.74729,-10.89301 10.58408,-25.992 10.71634,-35.7785 z"
       id="path4560-5-1" />
    <path
       sodipodi:nodetypes="ccccsccccccscc"
       inkscape:connector-curvature="0"
       style="opacity:1;fill:url(#pattern10318);fill-opacity:1;stroke:none;stroke-width:2;stroke-linecap:round;stroke-linejoin:miter;stroke-miterlimit:4;stroke-dasharray:none;stroke-dashoffset:0;stroke-opacity:1;paint-order:fill markers stroke"
       d="m 143.08826,90.611654 -31.29887,1.204061 c -0.13496,1.067101 -0.30799,2.423107 -0.30799,2.423107 0.31641,2.266921 0.97482,4.519919 1.88981,6.236828 -2.26786,1.5119 -1.88981,19.46555 -1.88981,21.54443 0,0.22485 -0.1136,0.4288 -0.30851,0.6165 -0.13226,9.7865 -2.96905,24.88549 -10.71634,35.7785 2.79058,1.79593 6.34925,2.94906 10.6655,4.5067 3.79347,1.36899 20.68086,-0.98964 35.59368,-7.27242 -6.1291,-26.77444 6.70454,-37.18403 11.58192,-42.56569 -1.20438,-1.37836 -1.25717,-2.91983 -0.77462,-3.81993 1.02042,-1.90333 0.33047,-5.95264 -0.59478,-7.953 -0.6994,-1.512078 -0.2572,-2.776503 0.66146,-5.909715 z"
       id="path1716-5-1-7-4-3" />
    <path
       inkscape:connector-curvature="0"
       style="opacity:1;fill:url(#radialGradient10342);fill-opacity:1;stroke:none;stroke-width:2;stroke-linecap:round;stroke-linejoin:miter;stroke-miterlimit:4;stroke-dasharray:none;stroke-dashoffset:0;stroke-opacity:1;paint-order:fill markers stroke"
       d="m 136.60021,61.696083 c -0.30554,0.002 -0.61683,0.011 -0.9338,0.0274 -3.04292,0.15744 -6.60241,1.00324 -10.48362,3.12798 -9.94021,5.44169 -12.70963,21.55726 -13.3935,26.96424 l 0.0156,-5.3e-4 c -0.2051,1.48524 -0.27749,2.38745 -0.27749,2.38745 0.31641,2.26692 0.97483,4.51941 1.88981,6.236317 -0.0156,0.0104 -0.0306,0.0247 -0.046,0.0367 1.81385,0.21293 4.9599,-1.359607 4.9599,-1.359607 l -0.56742,11.816847 1.66089,1.48208 5.14284,-1.29346 -0.0668,-13.171597 c 0,0 8.19332,1.16612 11.97308,-0.15679 3.77978,-1.32292 6.61458,-7.18147 6.61458,-7.18147 l 14.50144,4.78937 c 0.0645,-0.21989 0.13182,-0.34692 0.19379,-0.5948 0.6038,-11.68267 -1.81386,-24.08613 -12.10935,-30.86891 -1.21809,-0.77515 -4.49075,-2.27317 -9.07386,-2.24121 z"
       id="path1332-4-7-2-0"
       sodipodi:nodetypes="cscccccccccccscccccc" />
    <path
       sodipodi:nodetypes="ccccsccccccscc"
       inkscape:connector-curvature="0"
       style="opacity:1;fill:none;fill-opacity:1;stroke:none;stroke-width:2;stroke-linecap:round;stroke-linejoin:miter;stroke-miterlimit:4;stroke-dasharray:none;stroke-dashoffset:0;stroke-opacity:1;paint-order:fill markers stroke"
       d="m 143.08826,90.611654 -31.29887,1.204061 c -0.13496,1.067101 -0.30799,2.423107 -0.30799,2.423107 0.31641,2.266921 0.97482,4.519919 1.88981,6.236828 -2.26786,1.5119 -1.88981,19.46555 -1.88981,21.54443 0,0.22485 -0.1136,0.4288 -0.30851,0.6165 -0.13226,9.7865 -2.96905,24.88549 -10.71634,35.7785 2.79058,1.79593 6.34925,2.94906 10.6655,4.5067 3.79347,1.36899 20.68086,-0.98964 35.59368,-7.27242 -6.1291,-26.77444 6.70454,-37.18403 11.58192,-42.56569 -1.20438,-1.37836 -1.25717,-2.91983 -0.77462,-3.81993 1.02042,-1.90333 0.33047,-5.95264 -0.59478,-7.953 -0.6994,-1.512078 -0.2572,-2.776503 0.66146,-5.909715 z"
       id="path1716-5-1-7-4" />
    <path
       style="opacity:1;fill:url(#radialGradient10388);fill-opacity:1;stroke:none;stroke-width:1;stroke-linecap:round;stroke-linejoin:miter;stroke-miterlimit:4;stroke-dasharray:none;stroke-dashoffset:0;stroke-opacity:1;paint-order:fill markers stroke"
       d="m 122.06741,76.141713 c 0.93908,-0.30431 1.96201,-0.52389 3.08303,-0.6258 0.32483,-0.0295 0.64754,-0.0464 0.9679,-0.0512 9.59314,-0.14253 18.2392,8.50397 21.06933,16.26315 0,0 2.82204,0.7973 4.40964,1.24583 0,0 0.3676,-6.75773 -0.48539,-11.34525 -0.83966,-4.51585 -4.39955,-15.08844 -15.39071,-15.10477 -6.31171,-0.39102 -12.00617,4.77001 -13.6538,9.618 z"
       id="path1346-3-1-7-2-9"
       inkscape:connector-curvature="0"
       sodipodi:nodetypes="cccccscc" />
    <path
       inkscape:connector-curvature="0"
       style="opacity:1;fill:url(#linearGradient10340);fill-opacity:1;stroke:none;stroke-width:2;stroke-linecap:round;stroke-linejoin:miter;stroke-miterlimit:4;stroke-dasharray:none;stroke-dashoffset:0;stroke-opacity:1;paint-order:fill markers stroke"
       d="m 130.31013,81.837483 c -0.35406,-0.002 -0.70905,0.0222 -1.06399,0.0765 -5.67953,0.86862 -8.95348,4.1429 -8.95348,4.1429 0,0 2.50301,1.3361 3.03754,3.67471 0.53454,2.33861 0.67221,3.77781 2.944,4.78007 2.2718,1.00226 7.92544,0.23993 12.7765,-4.48396 1.515,-1.47528 1.62779,-2.20038 1.62779,-2.20038 0,0 -5.05732,-5.95678 -10.36836,-5.98982 z m 10.36836,5.98982 c 0,0 2.09823,1.33373 2.2464,3.14089 0,0 10.06583,3.10494 14.53554,4.84725 0.30283,0.16367 0.32298,-1.00924 0.32298,-1.00924 z m -24.20576,-3.59048 c -1.20695,0.0236 -2.59722,0.71449 -3.84574,2.68717 -0.89487,4.22102 -1.14567,7.31532 -1.14567,7.31532 0.31639,2.26692 0.97483,4.5194 1.88981,6.236307 1.49081,0.17054 3.47165,-0.654667 4.95998,-1.359587 l -0.56752,11.816837 1.61697,1.44281 0.90639,-26.299167 c 0,0 -1.69453,-1.88117 -3.81424,-1.83968 z"
       id="path1716-7-9-4"
       sodipodi:nodetypes="ccccsccccccccccccccccccc" />
    <path
       style="opacity:1;fill:#000000;fill-opacity:1;stroke:none;stroke-width:1;stroke-linecap:round;stroke-linejoin:miter;stroke-miterlimit:4;stroke-dasharray:none;stroke-dashoffset:0;stroke-opacity:1;paint-order:fill markers stroke"
       d="m 111.5329,94.182523 c 0,0 1.51191,1.51192 3.77976,0.94495 2.26787,-0.56696 3.77978,-4.34674 3.02381,-6.04763 -0.75594,-1.70089 -4.44124,-2.36235 -6.80357,5.10268 z"
       id="path1340-2-3-1-0"
       inkscape:connector-curvature="0" />
    <path
       style="opacity:1;fill:#000000;fill-opacity:1;stroke:none;stroke-width:1;stroke-linecap:round;stroke-linejoin:miter;stroke-miterlimit:4;stroke-dasharray:none;stroke-dashoffset:0;stroke-opacity:1;paint-order:fill markers stroke"
       d="m 137.99124,89.457823 c 0,0 -4.16998,-3.75491 -8.07113,-3.80171 -3.59549,-0.0431 -5.40237,1.21221 -5.34704,4.36867 0.189,3.29009 3.97759,3.71964 4.91372,3.59077 4.85376,-0.66817 8.50445,-4.15773 8.50445,-4.15773 z"
       id="path1338-9-4-7-3"
       inkscape:connector-curvature="0"
       sodipodi:nodetypes="cscsc" />
    <path
       inkscape:connector-curvature="0"
       id="path4999-8-5"
       d="m 187.72602,147.74682 c -0.0709,-0.006 -0.14028,-0.0198 -0.21135,-0.0248 -0.53924,-0.0378 -1.08288,-0.0513 -1.62935,-0.0429 -9.84692,0.49316 -18.91869,6.03094 -26.4051,11.96721 -0.53912,12.82666 -1.39778,29.68718 -5.07612,38.76733 5.25388,-0.35245 20.34989,-1.27619 27.83134,-1.83602 0.79534,-5.74129 2.07571,-11.82036 2.3371,-17.10978 0.61393,-11.15972 2.88305,-21.35285 3.1538,-31.72107 z"
       style="opacity:1;fill:url(#pattern1024);fill-opacity:1;fill-rule:nonzero;stroke:none;stroke-width:0.02645833;stroke-linecap:round;stroke-linejoin:miter;stroke-miterlimit:4;stroke-dasharray:none;stroke-dashoffset:0;stroke-opacity:1;paint-order:fill markers stroke"
       sodipodi:nodetypes="ccccccccc" />
    <path
       style="opacity:1;fill:url(#pattern2369);fill-opacity:1;fill-rule:nonzero;stroke:none;stroke-width:1.21359384;stroke-linecap:square;stroke-linejoin:miter;stroke-miterlimit:4;stroke-dasharray:none;stroke-dashoffset:0;stroke-opacity:1;paint-order:fill markers stroke"
       d="m 48.933363,141.71775 c -0.338304,-0.0229 -0.723588,0.51927 -0.815972,0.69815 l 1.139465,0.93276 c 1.313855,1.71423 -0.3679,12.84357 -3.453019,20.11298 l -5.389335,-4.7227 c -2.35213,5.86273 0.52941,13.18552 1.373561,14.62236 1.886968,3.16239 13.47897,6.76025 19.442739,12.9651 1.96369,2.15628 8.156361,2.22416 9.922391,2.80706 3.49319,1.15297 7.258076,4.11346 13.621909,3.70985 l -6.13296,-30.85909 c -5.40327,-4.13262 -22.338442,-15.5986 -29.567703,-20.21944 -0.04542,-0.029 -0.09275,-0.0438 -0.141076,-0.047 z"
       id="path9906-1-6"
       inkscape:connector-curvature="0" />
    <path
       style="opacity:1;fill:#202222;fill-opacity:1;fill-rule:nonzero;stroke:none;stroke-width:3;stroke-linecap:square;stroke-linejoin:miter;stroke-miterlimit:4;stroke-dasharray:none;stroke-dashoffset:0;stroke-opacity:1;paint-order:fill markers stroke"
       d="m 45.804019,163.46138 c 0,0 -2.529656,7.21563 -3.632595,5.27598 -0.688409,-2.19507 -1.05635,-5.34923 0.05649,-8.4074 z"
       id="path2330"
       inkscape:connector-curvature="0"
       sodipodi:nodetypes="cccc" />
    <path
       sodipodi:nodetypes="ccccsccccccscc"
       inkscape:connector-curvature="0"
       style="opacity:1;fill:none;fill-opacity:1;stroke:none;stroke-width:2;stroke-linecap:round;stroke-linejoin:miter;stroke-miterlimit:4;stroke-dasharray:none;stroke-dashoffset:0;stroke-opacity:1;paint-order:fill markers stroke"
       d="m 260.05084,43.576881 -31.29887,1.204061 c -0.13496,1.067101 -0.30799,2.423107 -0.30799,2.423107 0.31641,2.266921 0.97482,4.519919 1.88981,6.236829 -2.26786,1.511901 -1.88981,19.465552 -1.88981,21.544423 0,0.224851 -0.1136,0.428803 -0.30851,0.616501 -0.13226,9.786501 -2.96905,24.885488 -10.71634,35.778498 2.79058,1.79593 6.34925,2.94906 10.6655,4.5067 3.79347,1.36899 20.68086,-0.98964 35.59369,-7.27242 -6.12911,-26.774438 6.70453,-37.184022 11.58191,-42.565687 -1.20437,-1.378355 -1.25716,-2.919828 -0.77461,-3.819922 1.02041,-1.903338 0.33047,-5.95264 -0.59478,-7.953001 -0.6994,-1.512081 -0.25721,-2.776506 0.66146,-5.909718 z"
       id="path1716-5-1-7-4-3-5" />
    <path
       style="opacity:1;fill:#8c690a;fill-opacity:1;fill-rule:nonzero;stroke:none;stroke-width:0.3784793;stroke-linecap:square;stroke-linejoin:miter;stroke-miterlimit:4;stroke-dasharray:none;stroke-dashoffset:0;stroke-opacity:1;paint-order:fill markers stroke"
       d="m 38.042234,131.54806 c 0.704154,0.5028 1.211606,13.26848 -1.967779,16.7187 -0.658215,0.71428 -4.24613,0.57156 -4.24613,0.57156 0,0 -2.253411,-16.57075 0.396956,-16.70294 1.912221,-0.89031 5.148688,-1.06448 5.816953,-0.58732 z"
       id="path10925-2-5-46"
       inkscape:connector-curvature="0"
       sodipodi:nodetypes="ssccs" />
    <path
       style="opacity:1;fill:url(#linearGradient11670);fill-opacity:1;fill-rule:nonzero;stroke:none;stroke-width:0.3784793;stroke-linecap:square;stroke-linejoin:miter;stroke-miterlimit:4;stroke-dasharray:none;stroke-dashoffset:0;stroke-opacity:1;paint-order:fill markers stroke"
       d="m 28.066605,133.0547 c -1.110973,1.03608 -3.725934,11.12713 -1.261309,15.16242 0.728053,1.19205 8.486048,0.47719 8.486048,0.47719 0,0 -1.204532,-1.03022 -1.08846,-1.64753 0.161404,-0.87865 -1.065024,-13.81372 2.579499,-15.93299 -4.213711,-0.56588 -7.371118,0.87212 -8.715778,1.94091 z"
       id="path10923-3-6-5"
       inkscape:connector-curvature="0"
       sodipodi:nodetypes="cscccc" />
    <path
       style="opacity:1;fill:#cba608;fill-opacity:1;fill-rule:nonzero;stroke:none;stroke-width:0.3784793;stroke-linecap:square;stroke-linejoin:miter;stroke-miterlimit:4;stroke-dasharray:none;stroke-dashoffset:0;stroke-opacity:1;paint-order:fill markers stroke"
       d="m 31.725502,130.47842 c -1.213733,0.0755 -4.803935,0.9411 -5.920249,1.88026 -3.034861,1.98304 -3.472461,10.09087 -1.863869,16.08255 0.994502,2.18928 8.417511,1.65857 8.098714,0.44179 -0.628125,-1.40837 -3.182904,-0.77759 -3.416653,-2.05791 -0.919629,-5.03748 -0.118327,-11.81268 1.480477,-13.99121 1.107952,-1.36387 2.718548,-1.7275 4.197187,-1.76999 -1.065442,-0.71805 -1.83485,-0.62515 -2.575607,-0.58549 z"
       id="path10921-3-0-1"
       inkscape:connector-curvature="0"
       sodipodi:nodetypes="ccccsccc" />
    <path
       style="opacity:1;fill:#9d7909;fill-opacity:1;fill-rule:nonzero;stroke:none;stroke-width:0.37368608;stroke-linecap:square;stroke-linejoin:miter;stroke-miterlimit:4;stroke-dasharray:none;stroke-dashoffset:0;stroke-opacity:1;paint-order:fill markers stroke"
       d="m 37.470275,132.20031 c 1.320257,0.63137 1.785801,2.20772 2.613967,2.70872 0.612284,0.37041 1.858378,-0.21488 3.286712,-1.33026 0.640936,-0.55125 -1.549056,-3.91597 -1.768852,-4.13031 -0.219797,-0.21433 -3.31474,1.59034 -3.31474,1.59034 z"
       id="path10911-2-1-6"
       inkscape:connector-curvature="0"
       sodipodi:nodetypes="cscccc" />
    <path
       style="opacity:1;fill:#b08c09;fill-opacity:1;fill-rule:nonzero;stroke:none;stroke-width:0.38698968;stroke-linecap:square;stroke-linejoin:miter;stroke-miterlimit:4;stroke-dasharray:none;stroke-dashoffset:0;stroke-opacity:1;paint-order:fill markers stroke"
       d="m 38.834372,133.64612 c 0.610629,1.11914 3.769692,-3.83081 2.915077,-4.51978 -1.406098,-1.20239 -4.648668,-2.74526 -6.571552,-2.81491 -1.801493,-0.0653 -3.034038,3.99584 -3.034038,3.99584 0,0 5.209765,1.39897 6.690513,3.33885 z"
       id="path10915-0-8-9"
       inkscape:connector-curvature="0"
       sodipodi:nodetypes="ccscc" />
    <path
       style="opacity:1;fill:#cba608;fill-opacity:1;fill-rule:nonzero;stroke:none;stroke-width:0.3784793;stroke-linecap:square;stroke-linejoin:miter;stroke-miterlimit:4;stroke-dasharray:none;stroke-dashoffset:0;stroke-opacity:1;paint-order:fill markers stroke"
       d="m 28.689897,132.27054 c 1.683613,1.24019 5.05557,0.27863 7.825522,-1.67713 0.461634,-0.3185 -0.240461,-4.45785 -1.405811,-4.82652 -1.60641,0.7563 -3.274991,1.2417 -4.295941,1.90972 -1.503797,1.12714 -2.639782,2.07408 -2.123781,4.59391 z"
       id="path10917-0-9-9"
       inkscape:connector-curvature="0"
       sodipodi:nodetypes="cccccc" />
  </g>
</svg>
